# xmcd
#
# Track frame offsets:
#	150
#	21153
#	41632
#	60593
#	77753
#	94459
#	111204
#	125863
#	143838
#	157988
#	176569
#	251611
#	274984
#	303554
#
# Disc length: 4519 seconds
#
# Revision: 5
# Processed by: cddbd v1.5.2PL0 Copyright (c) Steve Scherf et al.
# Submitted via: EasyCDDAExtractor 15.3.0.1
#
DISCID=c811a50e
DTITLE=Tiziano Ferro - Nadie Esta Solo
DYEAR=2006
DGENRE=Latin
TTITLE0=Tarantula De Africa
TTITLE1=Te Tomare Una Foto
TTITLE2=Y Estaba Contentisimo
TTITLE3=Stop! Olvidate
TTITLE4=Y Esta Oscuro
TTITLE5=Despidiendoteahogo
TTITLE6=Y Raffaella Es Mia
TTITLE7=El Miedo Que...
TTITLE8=Baciano Le Donne (Featuring Biagio Antonacci)
TTITLE9=Gia Ti Guarda Alice
TTITLE10=Mio Fratello
TTITLE11=Mi Credo (Tiziano Ferro, Pepe Aguilar) (Bonus Track)
TTITLE12=Stop! Dimentica (Bonus Track)
TTITLE13=Data Track
EXTD=
EXTT0=
EXTT1=
EXTT2=
EXTT3=
EXTT4=
EXTT5=
EXTT6=
EXTT7=
EXTT8=
EXTT9=
EXTT10=
EXTT11=
EXTT12=
EXTT13=
PLAYORDER=
